<?xml version="1.0" encoding="utf-8"?>
<!DOCTYPE svg PUBLIC "-//W3C//DTD SVG 1.1//EN" "http://www.w3.org/Graphics/SVG/1.1/DTD/svg11.dtd">
<svg version="1.1" xmlns="http://www.w3.org/2000/svg" xmlns:xlink="http://www.w3.org/1999/xlink" x="0px" y="0px" viewBox="0 0 22.528303 62.049629" enable-background="new 0 0 22.528303 62.049629" xml:space="preserve">
	<symbol id="train-icon" viewBox="0 0 22.526012 72">
		<path d="M 6.075963,60.157523 C 4.2948858,60.561591 3.0705114,57.708128 2.6115342,56.085059 2.3115342,55.385059 2,53.6979 2,52.9979 l 0,-7.9 c 0,-6.2 0.1,-33.6 0,-34 0,-0.7 0.2,-1.3 0.4,-2 2.8506,-9.3559 15.135,-9.5713 17.7,0 0.3,0.7 0.5,1.5 0.4,2.2 l 0,9.6 0,19.2 0,12.8 c 0.1,1 -0.348066,3.005134 -0.348066,3.005134 -0.529488,1.452557 -1.523162,4.658956 -3.430596,4.146566 M 15.3,55.4979 c 0.4,-0.7 0.5,-1.5 0.2,-2.3 -0.2,-0.5 -0.6,-1 -1.1,-1.3 -0.3,-0.2 -0.7,-0.3 -1.1,-0.4 l -3.7,0 c -0.4,0 -0.9,0.1 -1.2,0.3 -0.4,0.2 -0.8,0.5 -1,0.9 -0.4,0.6 -0.5,1.3 -0.4,1.9 0.2,1.1 1.3,2.1 2.4,2.1 l 3.5,0 c 1,0.2 1.9,-0.4 2.4,-1.2 m 1.7191,1.2682 c 0.8,-0.5 1.5809,-1.6682 1.8809,-2.5682 0.2,-0.7 0.2,-1.5 0.2,-2.2 l 0,-3.9 c -0.6,0.2 -1.3,0.2 -2,0.1 -0.8,-0.1 -1.5,-0.6 -1.8,-1.3 -0.1,-0.3 -0.2,-0.7 -0.2,-1 l 0,-26.4 c 0,-0.5 0,-1.1 0.1,-1.6 0.2,-0.6 0.5,-1.1 1,-1.3 0.5,-0.3 1.1,-0.3 1.7,-0.3 0.4,0 0.8,0 1.1,0.1 l 0,-4.9 c 0,-0.8 -0.2,-1.6 -0.7,-2.3 -0.5,-0.7 -1.2,-1.2 -2,-1.5 0.7,0.9 1,2 0.8,3.1 -0.1,0.9 -0.6,1.8 -1.2,2.4 -0.7,0.7 -1.7,1.1 -2.6,1.2 l -3.3,0 -0.9,0 c -1.3,-0.2 -2.5,-1 -3.1,-2.2 -0.7,-1.4 -0.6,-3.2 0.4,-4.4 -0.3,0.1 -0.5,0.2 -0.7,0.3 -0.1,0 -0.2,0.1 -0.3,0.2 -0.4,0.3 -0.8,0.7 -1.1,1.1 -0.6,0.8 -0.7,1.8 -0.6,2.8 l 0,4.3 c 0.5,-0.2 1.1,-0.1 1.7,-0.1 0.7,0 1.5,0.4 1.9,1 0.3,0.4 0.4,0.9 0.4,1.4 l 0,26.9 c 0,0.5 0,1 -0.2,1.4 -0.2,0.5 -0.5,0.8 -0.9,1.1 -0.3,0.2 -0.7,0.3 -1.1,0.3 -0.6,0 -1.2,0 -1.7,-0.1 l 0,4.2 c -0.1,0.9 0,1.9 0.5,2.7 0.5,0.9 1.3,1.5 2.2,1.8 -0.1,-0.1 -0.2,-0.2 -0.3,-0.4 -0.8,-1.3 -0.8,-3 0,-4.3 0.7,-1.2 2,-1.9 3.4,-2 l 2.9,0 c 0.5,0 1,0 1.5,0.1 0.5,0.1 0.9,0.3 1.3,0.5 0.6,0.3 1.1,0.8 1.4,1.4 0.9,1.4 0.8,3.3064 -0.2,4.6064 m 2,-10.4064 c 0.3,-0.1 0.5,-0.4 0.5,-0.7 l 0,-27.5 c 0,-0.3 -0.2,-0.6 -0.4,-0.7 -0.3,-0.1 -0.6,-0.1 -0.9,-0.1 -0.3,0 -0.6,0 -0.8,0.2 -0.2,0.2 -0.3,0.4 -0.2,0.6 l 0,27.4 c 0,0.4 0.4,0.9 0.8,0.8 0.3,0 0.7,0.1 1,0 m -13.1,0 c 0.3,-0.1 0.5,-0.4 0.5,-0.7 l 0,-27.6 c 0,-0.4 -0.3,-0.7 -0.7,-0.8 l -1,0 c -0.4,0 -0.7,0.4 -0.7,0.7 l 0,27.6 c 0,0.4 0.4,0.8 0.8,0.7 0.4,0.1 0.8,0.2 1.1,0.1 m 8.5,-34.1 c 0.6,-0.2 1.2,-0.7 1.5,-1.3 0.4,-0.6 0.4,-1.5 0.1,-2.2 -0.2,-0.6 -0.6,-1 -1.2,-1.3 -0.4,-0.3 -1,-0.4 -1.5,-0.4 l -3,0 c -0.3,0 -0.6,0 -0.9,0.1 -0.9,0.2 -1.6,1 -1.9,1.9 -0.2,0.7 -0.1,1.5 0.3,2.1 0.3,0.5 0.7,0.8 1.2,1 0.4,0.2 0.8,0.2 1.2,0.2 l 3,0 c 0.5,0.1 0.8,0 1.2,-0.1"/>
   		<path id="innerfill" d="m 16.5828,7.5573 c -0.6635,0.2808 -0.087,0.9961 0.032,1.4524 0.7003,2.0726 -0.7127,4.6877 -2.9595,4.9259 -1.6123,0.1054 -3.2839,0.1105 -4.9226,0.01 -1.6132,-0.3737 -2.947,-1.9697 -2.743,-3.669 -0.084,-0.7168 0.1081,-1.3951 0.4465,-2.0189 0.2937,-0.4487 -0.3005,-0.9344 -0.6937,-0.5918 -1.2874,0.7993 -2.4621,2.1177 -2.3846,3.7268 -0.029,1.6829 -0.046,3.3829 0.041,5.0554 0.2518,0.5698 1.0617,0.2213 1.5549,0.3412 0.7328,-0.048 1.5296,0.088 1.993,0.7143 0.6264,0.8988 0.2986,2.0702 0.4019,3.0908 0.032,8.1128 0.044,16.2266 -0.036,24.3391 -0.072,0.7859 0.062,1.6497 -0.2756,2.38 -0.3816,0.4599 -0.8857,0.8574 -1.5198,0.7936 -0.6413,0.059 -1.3155,-0.1307 -1.9297,0.074 -0.3186,0.6268 -0.045,1.4023 -0.1247,2.0885 0.04,1.4167 -0.026,2.8463 0.081,4.2549 0.5172,1.1551 1.3243,2.394 2.6078,2.7531 0.6418,-0.061 0.3787,-0.7684 0.1684,-1.1219 -0.9083,-1.8195 -0.034,-4.261 1.852,-5.0473 1.2108,-0.4962 2.5086,-0.2953 3.7953,-0.351 1.3117,-0.01 2.7976,0.022 3.8059,1.0161 1.2483,1.1515 1.4761,3.1039 0.7477,4.5989 -0.333,0.4278 0.1538,1.0996 0.6238,0.7214 1.2575,-0.9461 2.2604,-2.3909 2.2371,-4.0192 0.058,-1.6322 0.07,-3.282 0.01,-4.9052 -0.2226,-0.5657 -1.0001,-0.2154 -1.4671,-0.3124 -0.824,0.088 -1.722,-0.1417 -2.18,-0.8915 -0.3713,-0.6021 -0.1145,-1.3785 -0.2092,-2.048 -0.059,-8.9993 7e-4,-17.999 0,-26.9985 0.2476,-0.7472 0.9633,-1.2968 1.766,-1.2097 0.6196,-0.067 1.311,0.072 1.9083,-0.1534 0.2917,-0.6652 0.035,-1.4553 0.109,-2.1697 -0.083,-1.5403 0.1323,-3.1357 -0.3002,-4.6356 -0.4457,-0.9501 -1.2775,-1.7425 -2.2229,-2.1859 -0.071,-0.022 -0.1426,-0.013 -0.2149,-0.01 z"/>
<!--    		<path style="stroke-linecap:butt;stroke-linejoin:miter;stroke-dasharray:0.5,0.5" d="M 6.5175527,60.3 C 10,60.467936 13,60.467936 16.311876,60.3"/> -->
   		<path style="stroke-linecap:butt;stroke-linejoin:miter;stroke-dasharray:0.5,0.5" d="m 5.2483473,59.338519 c -0.089842,2.837387 12.3893217,2.90361 12.4737557,-0.07051"/>
   		<!-- id="back-line" -->
   		<!-- fill:none;stroke:#000000;stroke-width:0.90879673px;stroke-linecap:butt;stroke-linejoin:miter;stroke-opacity:1" -->
		<!-- style="fill-rule:nonzero"  -->
	</symbol>
</svg>
