<svg xmlns="http://www.w3.org/2000/svg" xmlns:xlink="http://www.w3.org/1999/xlink" version="1.1" baseProfile="basic" x="0px" y="0px" viewBox="0 0 81 101.25" xml:space="preserve">
  <!-- <g id="station-icon"> -->
  <symbol id="station-icon" viewBox="0 0 81 101.25">
    <polygon fill="indianred" points="60.9,64.2 54.3,64.2 54.3,64.2 45.7,64.2 45.7,64.2 35.1,64.2 35.1,64.2 26.4,64.2 26.4,64.2 19.8,64.2 19.8,64.2 11.2,64.2 11.2,64.2 2.8,64.2 2.8,67.4 77.4,67.4 77.4,64.2 69.6,64.2 69.6,64.2 60.9,64.2" />
    <path d="M19.8,53.5c0-1.8,1.5-3.3,3.3-3.3c1.8,0,3.3,1.5,3.3,3.3v9.3h8.6V51.3c0-2.9,2.4-5.3,5.3-5.3c2.9,0,5.3,2.4,5.3,5.3v11.5h8.5v-9.3c0-1.8,1.5-3.3,3.3-3.3s3.3,1.5,3.3,3.3v9.3h8.6v-24h0l-29-13.5L11.2,38.8h0v24h8.6V53.5z M40.5,31.7 c2.7,0,4.9,2.2,4.9,4.9s-2.2,4.9-4.9,4.9c-2.7,0-4.9-2.2-4.9-4.9S37.8,31.7,40.5,31.7z" />
    <polygon fill="indianred" points="43,34.1 41.6,33.3 40.1,35.7 38.5,35.2 38.1,36.7 40.9,37.5" />
  </symbol>
  <!-- </g> -->
<!-- <text x="0" y="96" fill="#000000" font-size="5px" font-weight="bold" font-family="'Helvetica Neue', Helvetica, Arial-Unicode, Arial, Sans-serif">Created by Guillaume Duchayne</text><text x="0" y="101" fill="#000000" font-size="5px" font-weight="bold" font-family="'Helvetica Neue', Helvetica, Arial-Unicode, Arial, Sans-serif">from the Noun Project</text> -->
</svg>
